<svg xmlns="http://www.w3.org/2000/svg" viewBox="0 12 14 14" width="32" height="32" fill="#000">
  <path d="M13.0729 17.6825a3.61 3.61 0 0 0-1.7248 3.0365 3.5132 3.5132 0 0 0 2.1379 3.2223 8.394 8.394 0 0 1-1.0948 2.2618c-.6816.9812-1.3943 1.9623-2.4787 1.9623s-1.3633-.63-2.6125-.63c-1.2179 0-1.6493.6507-2.6408.6507s-1.6852-.9089-2.4787-2.0243a9.7842 9.7842 0 0 1-1.6493-5.2776c0-3.0984 2.014-4.7405 3.9969-4.7405 1.0535 0 1.9314.6919 2.5924.6919.6299 0 1.6118-.7333 2.8093-.7333a3.7579 3.7579 0 0 1 3.1532 1.5802zm-3.7284-2.8927a3.5615 3.5615 0 0 0 .8489-2.22 1.5353 1.5353 0 0 0-.031-.32 3.5159 3.5159 0 0 0-2.3098 1.1879 3.4124 3.4124 0 0 0-.8799 2.1585 1.419 1.419 0 0 0 .031.2892 1.19 1.19 0 0 0 .2169.0207 3.0501 3.0501 0 0 0 2.1239-1.1163z"/>
</svg>
